# xmcd
#
# Track frame offsets:
#	150
#	21980
#	49117
#	67525
#
# Disc length: 1298 seconds
#
# Revision: 0
# Processed by: cddbd v1.5.1PL0 Copyright (c) Steve Scherf et al.
# Submitted via: dBpowerAMP V4.0
#
DISCID=28051004
DTITLE=gary moore - i have found my love in you
DYEAR=1900
DGENRE=
TTITLE0=i have found my love in you
TTITLE1=burning in our heart
TTITLE2=there must be a way
TTITLE3=beasts of burden
EXTD=
EXTT0=
EXTT1=
EXTT2=
EXTT3=
PLAYORDER=
